<svg width="694" height="429" viewBox="0 0 694 429" fill="none" xmlns="http://www.w3.org/2000/svg">
<path fill-rule="evenodd" clip-rule="evenodd" d="M399.786 -46.885C416.884 -19.4677 460.089 6.58388 514.054 18.2222C568.019 29.8588 618.252 24.2139 644.958 6.21367C652.578 1.44762 658.623 -5.47466 662.332 -13.6843C666.364 -24.6973 667.608 -34.738 660.995 -44.8488C650.435 -60.6962 637.547 -74.8459 622.768 -86.8194C622.603 -86.9461 622.397 -87.0045 622.191 -86.9828C621.985 -86.9628 621.796 -86.8611 621.662 -86.7043C621.544 -86.5659 621.479 -86.3891 621.479 -86.2057C621.479 -86.0239 621.544 -85.8471 621.662 -85.7087C626.961 -79.0683 629.127 -72.1744 627.768 -65.9041C623.16 -44.3168 578.711 -35.9654 528.156 -46.955C477.601 -57.9446 440.456 -83.9727 445.019 -105.49C446.447 -112.154 451.931 -117.822 460.204 -121.686C460.348 -121.753 460.464 -121.868 460.532 -122.011C460.601 -122.156 460.614 -122.32 460.572 -122.473C460.529 -122.65 460.418 -122.803 460.262 -122.898C460.107 -122.993 459.92 -123.023 459.744 -122.982C440.955 -118.334 423.008 -110.753 406.561 -100.516C387.574 -88.6704 388.127 -66.5061 399.786 -46.885ZM249.451 -54.3775C241.121 -60.033 232.029 -64.4828 222.446 -67.5937C222.277 -67.622 222.124 -67.7152 222.02 -67.8534C221.916 -67.99 221.87 -68.1632 221.89 -68.3331C221.901 -68.4263 221.931 -68.5163 221.98 -68.5962C222.027 -68.6778 222.09 -68.7477 222.167 -68.801C222.244 -68.856 222.331 -68.8943 222.423 -68.9126C222.514 -68.9326 222.61 -68.931 222.702 -68.911C263.732 -60.7625 300.941 -39.4044 328.607 -8.12103C357.141 24.7561 394.227 58.8839 462.373 81.3876C474.053 85.3062 485.977 88.4554 498.071 90.8152C606.524 114.105 698.523 81.8956 684.615 6.73544C684.583 6.5789 684.607 6.41736 684.684 6.27747C684.76 6.13759 684.884 6.02934 685.033 5.97273C685.121 5.93942 685.215 5.92613 685.308 5.92946C685.402 5.93446 685.494 5.95778 685.579 5.9994C685.664 6.04105 685.739 6.09761 685.8 6.16922C685.861 6.23917 685.908 6.32249 685.937 6.41075C694.126 34.2036 695.799 63.5003 690.828 92.0392C678.868 147.145 583.972 174.547 484.533 153.129C377.306 130.047 345.969 80.1171 317.922 31.1111C317.061 29.605 316.203 28.0999 315.347 26.5966L315.336 26.5787C298.388 -3.16331 281.834 -32.2125 249.451 -54.3775ZM120.512 -60.6407C93.28 -50.7482 68.7054 -34.7489 48.6919 -13.8794C48.6249 -13.8127 48.5712 -13.7342 48.5343 -13.6458C48.4991 -13.5591 48.479 -13.4656 48.479 -13.3705C48.479 -13.2754 48.4991 -13.182 48.5343 -13.0953C48.5712 -13.0068 48.6249 -12.9284 48.6919 -12.8617C48.816 -12.7549 48.972 -12.6964 49.1346 -12.6964C49.2973 -12.6964 49.4549 -12.7549 49.5773 -12.8617C108.112 -62.376 181.978 1.23713 216.109 106.703C220.122 118.347 223.364 130.24 225.81 142.305C240.374 212.4 229.207 261.523 214.899 302.751C201.475 342.311 201.475 385.163 214.899 424.723C214.931 424.81 214.979 424.89 215.041 424.958C215.103 425.027 215.18 425.082 215.264 425.122C215.348 425.16 215.44 425.182 215.534 425.185C215.626 425.189 215.719 425.172 215.806 425.139C215.964 425.087 216.094 424.975 216.173 424.828C216.25 424.683 216.269 424.511 216.225 424.353C214.112 414.469 213.438 404.334 214.225 394.258C217.301 355.154 234.309 326.281 251.707 296.745L251.708 296.744L251.708 296.743L251.708 296.742C252.591 295.244 253.474 293.744 254.357 292.241C283.112 243.583 311.031 191.404 277.297 87.0963C246.052 -9.61974 174.535 -77.9797 120.512 -60.6407ZM1.12504 88.8683C0.969583 88.9601 0.787379 88.9985 0.608519 88.9752C0.41963 88.9317 0.254134 88.8199 0.143809 88.6613C0.0318124 88.5043 -0.0166608 88.3106 0.00506986 88.1185C2.96044 69.2546 8.75416 50.9467 17.1907 33.8144C22.7102 22.9956 31.9859 19.0565 43.5834 17.0644C52.5715 16.1794 61.6214 17.9611 69.6033 22.1841C98.6638 36.4326 128.859 77.3916 145.905 130.166C162.951 182.943 162.092 233.608 146.879 262.221C135.746 282.237 116.752 293.752 96.9705 283.234C79.7465 274.05 64.0904 262.196 50.5856 248.112C50.4853 247.985 50.4302 247.828 50.4335 247.668C50.4352 247.506 50.492 247.351 50.5973 247.227C50.701 247.104 50.8447 247.02 51.0035 246.992C51.1623 246.963 51.3262 246.99 51.4682 247.069C59.0288 252.397 66.6814 254.251 73.1989 252.188C94.2107 245.332 98.037 199.923 82.1502 150.485C66.2635 101.046 36.6011 66.2941 15.5675 73.2455C9.44452 75.1908 4.55011 80.5192 1.46603 88.4659C1.40084 88.6345 1.2805 88.7764 1.12504 88.8683ZM575.867 416.762C575.705 416.849 575.517 416.869 575.34 416.819C575.26 416.773 575.191 416.71 575.137 416.637C575.104 416.591 575.077 416.542 575.056 416.489C575.002 416.351 574.995 416.2 575.035 416.057C575.877 406.895 573.658 399.418 568.566 394.802C551.867 380.032 510.389 399.371 475.146 437.728C439.903 476.085 424.676 518.874 441.235 533.574C446.022 537.937 453.145 539.505 461.624 538.19C461.807 538.166 461.994 538.203 462.154 538.294C462.316 538.386 462.44 538.527 462.511 538.697C462.58 538.893 462.57 539.108 462.482 539.298C462.396 539.487 462.238 539.635 462.043 539.713C444.09 546.555 425.192 550.672 405.992 551.921C393.707 552.637 385.556 546.522 377.966 537.544C372.67 530.23 369.672 521.537 369.347 512.549C367.152 480.4 387.657 434.035 425.189 393.025C462.721 352.015 507.329 327.527 540.026 326.373C563.126 326.005 582.72 336.621 583.514 358.938C584.156 378.339 581.69 397.718 576.204 416.358C576.15 416.531 576.029 416.677 575.867 416.762ZM646.955 183.722C646.918 183.809 646.866 183.885 646.799 183.951C619.186 215.272 582.029 236.697 541.024 244.942C498.083 253.249 449.851 268.127 396.256 315.722C386.998 323.864 378.283 332.598 370.166 341.869C295.611 423.962 277.228 519.384 349.439 545.044C349.586 545.104 349.71 545.213 349.791 545.351C349.871 545.489 349.901 545.649 349.879 545.808C349.866 545.901 349.832 545.991 349.782 546.071C349.732 546.151 349.665 546.22 349.587 546.271C349.508 546.325 349.419 546.36 349.326 546.375C349.232 546.392 349.137 546.387 349.044 546.363C320.937 539.569 294.779 526.401 272.609 507.884C230.596 470.03 254.296 374.261 322.7 299.017C396.464 217.894 455.608 215.812 512.289 216.089C514.064 216.098 515.837 216.11 517.608 216.121C551.889 216.342 585.427 216.559 620.894 199.66C629.992 195.309 638.417 189.684 645.917 182.955C646.039 182.85 646.195 182.791 646.357 182.791C646.52 182.791 646.677 182.85 646.799 182.955C646.866 183.02 646.918 183.097 646.955 183.183C646.991 183.268 647.01 183.36 647.01 183.454C647.01 183.545 646.991 183.637 646.955 183.722Z" fill="url(#paint0_linear_80_5850)"/>
<defs>
<linearGradient id="paint0_linear_80_5850" x1="346.812" y1="7" x2="346.812" y2="317.017" gradientUnits="userSpaceOnUse">
<stop stop-color="#202020" stop-opacity="0"/>
<stop offset="0.369792" stop-color="#202020" stop-opacity="0.83"/>
</linearGradient>
</defs>
</svg>
