<svg width="60" height="21" viewBox="0 0 60 21" fill="none" xmlns="http://www.w3.org/2000/svg">
<g clip-path="url(#clip0_80_2579)">
<path d="M9.57064 13.1374V15.9273C9.58146 16.1089 9.44394 16.2651 9.26318 16.276C9.25 16.2766 9.23683 16.2766 9.22365 16.276H0.847832C0.667072 16.2868 0.511651 16.1486 0.500839 15.967C0.500163 15.9538 0.500163 15.9405 0.500839 15.9273V0.349534C0.490027 0.167888 0.627879 0.0117068 0.808639 0.000841977C0.821816 0.000162928 0.834655 0.000162928 0.847832 0.000841977H4.11031C4.29107 -0.0100228 4.4465 0.128503 4.45731 0.310149C4.45798 0.323391 4.45798 0.336632 4.45731 0.349873V12.7877H9.22365C9.40441 12.7768 9.55983 12.915 9.57098 13.0967C9.57166 13.1102 9.57166 13.1238 9.57098 13.1374H9.57064Z" fill="white"/>
<path d="M22.3657 5.23275V15.9278C22.3769 16.1094 22.2394 16.2656 22.0586 16.2765C22.0454 16.2771 22.0319 16.2771 22.0187 16.2765H18.9877C18.7995 16.2799 18.6441 16.1295 18.6407 15.9403C18.6407 15.9363 18.6407 15.9318 18.6407 15.9278L18.5481 14.6956C17.7845 15.8117 16.651 16.579 15.3323 16.579C12.8104 16.579 10.9825 14.6488 10.9825 11.6033V5.23275C10.9717 5.0511 11.1092 4.89492 11.29 4.88406C11.3032 4.88338 11.3163 4.88338 11.3295 4.88406H14.4531C14.6339 4.87285 14.7893 5.01104 14.8005 5.19269C14.8011 5.20593 14.8011 5.21951 14.8005 5.23275V10.7891C14.8005 12.6028 15.9111 12.9753 16.6284 12.9753C17.9704 12.9753 18.5491 11.9988 18.5491 11.1154V5.23275C18.5383 5.0511 18.6762 4.89492 18.8569 4.88406C18.8701 4.88338 18.883 4.88338 18.8961 4.88406H22.0198C22.2005 4.87353 22.3556 5.01206 22.3664 5.19371C22.3671 5.20661 22.3671 5.21985 22.3664 5.23275H22.3657Z" fill="white"/>
<path d="M43.3275 9.60311V15.9271C43.3383 16.1087 43.2004 16.2649 43.0197 16.2758C43.0065 16.2765 42.9933 16.2765 42.9801 16.2758H39.8565C39.6758 16.2866 39.5207 16.1485 39.5095 15.9668C39.5089 15.9536 39.5089 15.9403 39.5095 15.9271V10.4166C39.5095 8.6032 38.4682 8.208 37.6817 8.208C36.4322 8.208 35.7382 9.23099 35.7382 9.88219V15.9271C35.749 16.1087 35.6112 16.2649 35.4304 16.2758C35.4172 16.2765 35.4041 16.2765 35.3909 16.2758H32.2673C32.0865 16.2866 31.9311 16.1485 31.9203 15.9668C31.9196 15.9536 31.9196 15.9403 31.9203 15.9271V10.4166C31.9203 8.6032 30.9023 8.208 30.1157 8.208C28.7044 8.208 28.1723 9.60311 28.1723 10.1609V15.9271C28.1831 16.1087 28.0453 16.2649 27.8645 16.2758C27.8513 16.2765 27.8381 16.2765 27.825 16.2758H24.7013C24.5206 16.2866 24.3652 16.1485 24.3544 15.9668C24.3537 15.9536 24.3537 15.9403 24.3544 15.9271V5.23206C24.3435 5.05042 24.4811 4.89424 24.6618 4.88337C24.675 4.88269 24.6882 4.88269 24.7013 4.88337H27.7324C27.9206 4.87998 28.076 5.03039 28.0794 5.2195C28.0794 5.22358 28.0794 5.22799 28.0794 5.23206L28.172 6.62717C28.8659 5.46498 29.9998 4.62771 31.5963 4.62771C33.0076 4.62771 34.257 5.37195 35.0206 6.67369C35.8838 5.36957 37.3495 4.59817 38.9078 4.62771C41.4526 4.62771 43.3268 6.55723 43.3268 9.60311H43.3275Z" fill="white"/>
<path d="M56.5153 5.27861L50.5229 20.4146C50.4593 20.5891 50.2907 20.7019 50.1063 20.6937H47.0522C46.7975 20.6937 46.659 20.5542 46.7745 20.2985L48.4406 16.3003L44.0678 5.27963C43.9752 5.02363 44.0908 4.88408 44.3452 4.88408H47.4918C47.6763 4.87593 47.8449 4.98899 47.9084 5.16317L50.2684 11.7432L52.6285 5.16317C52.692 4.98865 52.8606 4.87593 53.0451 4.88408H56.2379C56.4927 4.88374 56.6079 5.02329 56.5153 5.27895V5.27861Z" fill="white"/>
<path d="M55.4739 14.5554C55.4739 13.4384 56.375 12.5325 57.4869 12.5325C58.5985 12.5325 59.4999 13.438 59.4999 14.5554C59.4999 15.6725 58.5988 16.5783 57.4869 16.5783C56.3757 16.5776 55.4746 15.6725 55.4739 14.5554Z" fill="white"/>
</g>
<defs>
<clipPath id="clip0_80_2579">
<rect width="59" height="20.694" fill="white" transform="translate(0.5)"/>
</clipPath>
</defs>
</svg>
